<?xml version="1.0" encoding="UTF-8"?>
<svg id="about_me" data-name="about me" xmlns="http://www.w3.org/2000/svg" viewBox="0 0 288.113 273.121">
  <path d="M169.685,136.56c0,14.154-11.474,25.628-25.628,25.628s-25.628-11.474-25.628-25.628,11.474-25.628,25.628-25.628c14.147.016,25.612,11.481,25.628,25.628ZM224.144,101.322v70.477c-.028,24.758-20.091,44.821-44.849,44.849h-70.477c-24.758-.028-44.821-20.091-44.849-44.849v-70.477c.028-24.758,20.091-44.821,44.849-44.849h70.477c24.758.028,44.821,20.091,44.849,44.849ZM182.499,136.56c0-21.231-17.211-38.442-38.442-38.442s-38.442,17.211-38.442,38.442,17.211,38.442,38.442,38.442c21.221-.024,38.418-17.221,38.442-38.442ZM195.313,94.915c0-5.308-4.303-9.611-9.611-9.611s-9.611,4.303-9.611,9.611,4.303,9.611,9.611,9.611,9.611-4.303,9.611-9.611Z" fill="#f06ca8"/>
</svg>